<svg xmlns="http://www.w3.org/2000/svg" viewBox="0 0 64 64" role="img" aria-label="bobo">
  <title>bobo</title>
  <g fill="none" stroke="#fff" stroke-linecap="round" stroke-linejoin="round">
    <!-- 一笔流线：外圈象征探索路径，内圈保持轻盈的回旋感 -->
    <path d="M49.5 30.5c0 10.5-7.8 19-17.5 19S14.5 42.2 14.5 31.5 22.3 12.5 32 12.5c8.9 0 16 6.5 17.1 15.1" stroke-width="3.2"/>
    <path d="M18.5 35.2c2.6-8.8 11.1-13.7 18.3-10.7 6.2 2.6 8.2 9.5 4.3 14.3-3.2 3.9-9.8 4.3-13.1.9-3.4-3.5-1.8-8.8 2.9-10.5 3.8-1.4 7.4.8 7.6 4.3" stroke-width="2.8"/>
    <path d="M45.5 18.5 49 15m0 0v6m0-6h-6" stroke-width="2.4"/>
  </g>
</svg>
